# Blender 4.1.0
# www.blender.org
mtllib Projectile.mtl
o Cube.003
v -0.515387 -0.515388 7.559017
v -0.515387 0.515388 7.559017
v -0.515388 -0.515388 -7.559017
v -0.515388 0.515388 -7.559017
v 0.515388 -0.515388 7.559017
v 0.515388 0.515388 7.559017
v 0.515387 -0.515388 -7.559017
v 0.515387 0.515388 -7.559017
v -0.687183 -0.687183 -4.123100
v -0.687183 -0.687183 4.123100
v -0.687183 0.687183 4.123100
v -0.687183 0.687183 -4.123100
v 0.687183 -0.687183 4.123100
v 0.687183 -0.687183 -4.123100
v 0.687183 0.687183 -4.123100
v 0.687183 0.687183 4.123100
v -0.657755 -0.657755 6.613080
v -0.628327 -0.000000 7.709604
v -0.657755 0.657755 -6.613080
v -0.628327 -0.000000 -7.709604
v -0.000000 -0.628327 -7.709603
v -0.000000 0.628327 -7.709604
v 0.628327 -0.000000 -7.709604
v 0.657755 -0.657755 -6.613080
v 0.657755 0.657755 6.613080
v 0.628327 -0.000000 7.709604
v 0.000000 -0.628327 7.709603
v 0.000000 0.628327 7.709604
v -0.657755 -0.657755 -6.613080
v -0.687183 -0.687183 0.000000
v -0.657755 0.657755 6.613080
v -0.687183 0.687183 0.000000
v 0.657755 -0.657755 6.613080
v 0.687183 -0.687183 -0.000000
v 0.657755 0.657755 -6.613080
v 0.687183 0.687183 0.000000
v -0.000000 0.944877 -4.123100
v 0.000000 0.944877 4.123100
v -0.000000 -0.944877 -4.123101
v 0.000000 -0.944877 4.123101
v 0.944877 0.000000 -4.123100
v 0.944877 0.000000 4.123100
v -0.944877 0.000000 4.123100
v -0.944877 0.000000 -4.123100
v -0.905110 -0.000000 -6.627927
v -0.000000 -0.000000 -8.025623
v 0.905110 -0.000000 6.627927
v 0.000000 -0.000000 8.025623
v 0.000000 -0.905110 6.627927
v 0.000000 0.905110 6.627927
v -0.000000 0.905110 -6.627927
v -0.000000 0.944877 -0.000000
v -0.000000 -0.905110 -6.627927
v -0.000000 -0.944877 -0.000000
v 0.905110 0.000000 -6.627927
v 0.944877 0.000000 -0.000000
v -0.905110 0.000000 6.627927
v -0.944877 0.000000 0.000000
vn -0.6208 -0.6208 0.4787
vn -0.6208 0.6208 0.4787
vn -0.6208 -0.6208 -0.4787
vn -0.6208 0.6208 -0.4787
vn 0.6208 -0.6208 0.4787
vn 0.6208 0.6208 0.4787
vn 0.6208 -0.6208 -0.4787
vn 0.6208 0.6208 -0.4787
vn -0.7071 -0.7071 -0.0082
vn -0.7071 -0.7071 0.0082
vn -0.7071 0.7071 0.0082
vn -0.7071 0.7071 -0.0082
vn 0.7071 -0.7071 0.0082
vn 0.7071 -0.7071 -0.0082
vn 0.7071 0.7071 -0.0082
vn 0.7071 0.7071 0.0082
vn -0.7018 -0.7018 0.1219
vn -0.7606 -0.0000 0.6492
vn -0.7018 0.7018 -0.1219
vn -0.7606 -0.0000 -0.6492
vn -0.0000 -0.7606 -0.6492
vn -0.0000 0.7606 -0.6492
vn 0.7606 -0.0000 -0.6492
vn 0.7018 -0.7018 -0.1219
vn 0.7018 0.7018 0.1219
vn 0.7606 -0.0000 0.6492
vn -0.0000 -0.7606 0.6492
vn -0.0000 0.7606 0.6492
vn -0.7018 -0.7018 -0.1219
vn -0.7071 -0.7071 -0.0000
vn -0.7018 0.7018 0.1219
vn -0.7071 0.7071 -0.0000
vn 0.7018 -0.7018 0.1219
vn 0.7071 -0.7071 -0.0000
vn 0.7018 0.7018 -0.1219
vn 0.7071 0.7071 -0.0000
vn -0.0000 1.0000 -0.0080
vn -0.0000 1.0000 0.0080
vn -0.0000 -1.0000 -0.0080
vn -0.0000 -1.0000 0.0080
vn 1.0000 -0.0000 -0.0080
vn 1.0000 -0.0000 0.0080
vn -1.0000 -0.0000 0.0080
vn -1.0000 -0.0000 -0.0080
vn -0.9928 -0.0000 -0.1200
vn -0.0000 -0.0000 -1.0000
vn 0.9928 -0.0000 0.1200
vn -0.0000 -0.0000 1.0000
vn -0.0000 -0.9928 0.1200
vn -0.0000 0.9928 0.1200
vn -0.0000 0.9928 -0.1200
vn -0.0000 1.0000 -0.0000
vn -0.0000 -0.9928 -0.1200
vn -0.0000 -1.0000 -0.0000
vn 0.9928 -0.0000 -0.1200
vn 1.0000 -0.0000 -0.0000
vn -0.9928 -0.0000 0.1200
vn -1.0000 -0.0000 -0.0000
vt 0.833333 0.530354
vt 0.756945 0.529089
vt 0.904643 0.528082
vt 0.916667 0.530354
vt 0.750000 0.520236
vt 0.900977 0.519369
vt 0.958333 0.515177
vt 0.972158 0.520213
vt 1.000000 0.530354
vt 0.990998 0.500000
vt 1.000000 0.500000
vt 0.967464 0.500000
vt 0.958333 0.484823
vt 0.972158 0.479788
vt 1.000000 0.469646
vt 0.166667 0.469646
vt 0.243056 0.470911
vt 0.095358 0.471918
vt 0.083333 0.469646
vt 0.250000 0.479764
vt 0.099023 0.480631
vt 0.041667 0.484823
vt 0.027842 0.479788
vt 0.000000 0.469646
vt 0.009002 0.500000
vt 0.000000 0.500000
vt 0.032536 0.500000
vt 0.041667 0.515177
vt 0.027842 0.520213
vt 0.000000 0.530354
vt 0.166667 0.530354
vt 0.236111 0.500000
vt 0.090278 0.500000
vt 0.083333 0.530354
vt 0.250000 0.500000
vt 0.098122 0.500000
vt 0.250000 0.520236
vt 0.099023 0.519369
vt 0.901878 0.500000
vt 0.900977 0.480631
vt 0.750000 0.500000
vt 0.750000 0.479764
vt 0.500000 0.500000
vt 0.500000 0.479764
vt 0.500000 0.520236
vt 0.909722 0.500000
vt 0.916667 0.469646
vt 0.833333 0.469646
vt 0.763889 0.500000
vt 0.500000 0.530354
vt 0.500000 0.469646
vt 0.904643 0.471918
vt 0.756945 0.470911
vt 0.500000 0.470911
vt 0.095358 0.528082
vt 0.243056 0.529089
vt 0.500000 0.529089
s 1
usemtl Laser
f 9/1/9 44/2/44 45/3/45 29/4/29
f 44/2/44 12/5/12 19/6/19 45/3/45
f 45/3/45 19/6/19 4/7/4 20/8/20
f 29/4/29 45/3/45 20/8/20 3/9/3
f 3/9/3 20/8/20 46/10/46 21/11/21
f 20/8/20 4/7/4 22/12/22 46/10/46
f 46/10/46 22/12/22 8/13/8 23/14/23
f 21/11/21 46/10/46 23/14/23 7/15/7
f 13/16/13 42/17/42 47/18/47 33/19/33
f 42/17/42 16/20/16 25/21/25 47/18/47
f 47/18/47 25/21/25 6/22/6 26/23/26
f 33/19/33 47/18/47 26/23/26 5/24/5
f 5/24/5 26/23/26 48/25/48 27/26/27
f 26/23/26 6/22/6 28/27/28 48/25/48
f 48/25/48 28/27/28 2/28/2 18/29/18
f 27/26/27 48/25/48 18/29/18 1/30/1
f 10/31/10 40/32/40 49/33/49 17/34/17
f 40/32/40 13/16/13 33/19/33 49/33/49
f 49/33/49 33/19/33 5/24/5 27/26/27
f 17/34/17 49/33/49 27/26/27 1/30/1
f 16/20/16 38/35/38 50/36/50 25/21/25
f 38/35/38 11/37/11 31/38/31 50/36/50
f 50/36/50 31/38/31 2/28/2 28/27/28
f 25/21/25 50/36/50 28/27/28 6/22/6
f 8/13/8 22/12/22 51/39/51 35/40/35
f 22/12/22 4/7/4 19/6/19 51/39/51
f 51/39/51 19/6/19 12/5/12 37/41/37
f 35/40/35 51/39/51 37/41/37 15/42/15
f 15/42/15 37/41/37 52/43/52 36/44/36
f 37/41/37 12/5/12 32/45/32 52/43/52
f 52/43/52 32/45/32 11/37/11 38/35/38
f 36/44/36 52/43/52 38/35/38 16/20/16
f 3/9/3 21/11/21 53/46/53 29/4/29
f 21/11/21 7/15/7 24/47/24 53/46/53
f 53/46/53 24/47/24 14/48/14 39/49/39
f 29/4/29 53/46/53 39/49/39 9/1/9
f 9/1/9 39/49/39 54/43/54 30/50/30
f 39/49/39 14/48/14 34/51/34 54/43/54
f 54/43/54 34/51/34 13/16/13 40/32/40
f 30/50/30 54/43/54 40/32/40 10/31/10
f 7/15/7 23/14/23 55/52/55 24/47/24
f 23/14/23 8/13/8 35/40/35 55/52/55
f 55/52/55 35/40/35 15/42/15 41/53/41
f 24/47/24 55/52/55 41/53/41 14/48/14
f 14/48/14 41/53/41 56/54/56 34/51/34
f 41/53/41 15/42/15 36/44/36 56/54/56
f 56/54/56 36/44/36 16/20/16 42/17/42
f 34/51/34 56/54/56 42/17/42 13/16/13
f 1/30/1 18/29/18 57/55/57 17/34/17
f 18/29/18 2/28/2 31/38/31 57/55/57
f 57/55/57 31/38/31 11/37/11 43/56/43
f 17/34/17 57/55/57 43/56/43 10/31/10
f 10/31/10 43/56/43 58/57/58 30/50/30
f 43/56/43 11/37/11 32/45/32 58/57/58
f 58/57/58 32/45/32 12/5/12 44/2/44
f 30/50/30 58/57/58 44/2/44 9/1/9
