# Blender v3.6.4 OBJ File: 'SkySphere.blend'
# www.blender.org
mtllib SkySphere.mtl
o Cube.002_Cube.008
v -1850.978882 -1850.978882 1850.978882
v -1850.978882 1850.978882 1850.978882
v -1850.978882 -1850.978882 -1850.978882
v -1850.978882 1850.978882 -1850.978882
v 1850.978882 -1850.978882 1850.978882
v 1850.978882 1850.978882 1850.978882
v 1850.978882 -1850.978882 -1850.978882
v 1850.978882 1850.978882 -1850.978882
v -2120.972656 -2120.972900 -1098.185425
v -2256.594238 -2256.594727 0.000007
v -2120.972656 -2120.972900 1098.185425
v -2120.972656 -1098.185547 2120.972900
v -2256.594238 0.000019 2256.594727
v -2120.972412 1098.185547 2120.973145
v -2120.972900 2120.972656 1098.185425
v -2256.594482 2256.594482 -0.000015
v -2120.972900 2120.972656 -1098.185547
v -2120.973145 1098.185547 -2120.972656
v -2256.594482 0.000019 -2256.594482
v -2120.972656 -1098.185425 -2120.972656
v 1098.185425 -2120.972900 -2120.972656
v 0.000004 -2256.594727 -2256.594238
v -1098.185425 -2120.972900 -2120.972656
v -1098.185425 2120.972656 -2120.972900
v 0.000011 2256.594482 -2256.594727
v 1098.185547 2120.972656 -2120.972900
v 2120.972656 1098.185547 -2120.973145
v 2256.594482 0.000019 -2256.594482
v 2120.972656 -1098.185425 -2120.972656
v 2120.972656 -2120.972900 1098.185425
v 2256.594238 -2256.594727 -0.000004
v 2120.972656 -2120.972900 -1098.185425
v 2120.972900 2120.972656 -1098.185425
v 2256.594727 2256.594482 0.000030
v 2120.972900 2120.972656 1098.185547
v 2120.973145 1098.185547 2120.972656
v 2256.594482 0.000019 2256.594482
v 2120.972656 -1098.185425 2120.972656
v -1098.185547 -2120.972900 2120.972656
v -0.000004 -2256.594727 2256.594238
v 1098.185425 -2120.972900 2120.972656
v 1098.185425 2120.972900 2120.972900
v -0.000019 2256.594482 2256.594727
v -1098.185547 2120.972656 2120.972900
v -2698.689453 -1170.400146 1170.400146
v -2894.296387 -1233.271729 0.000022
v -2698.689209 -1170.400269 -1170.400146
v -2894.296143 0.000052 1233.271851
v -3107.815918 -0.000041 -0.000041
v -2894.296631 -0.000056 -1233.271729
v -2698.689209 1170.400146 1170.400146
v -2894.296387 1233.271729 -0.000061
v -2698.689209 1170.400024 -1170.400146
v -1170.400146 -1170.400146 -2698.689453
v -0.000045 -1233.271729 -2894.296387
v 1170.400146 -1170.400269 -2698.689209
v -1233.271851 0.000067 -2894.296143
v -0.000007 -0.000011 -3107.815674
v 1233.271729 -0.000026 -2894.296143
v -1170.400269 1170.400146 -2698.689209
v 0.000035 1233.271729 -2894.296387
v 1170.400146 1170.400024 -2698.689209
v 2698.689453 -1170.400146 -1170.400146
v 2894.296387 -1233.271729 -0.000045
v 2698.689209 -1170.400269 1170.400146
v 2894.296143 0.000067 -1233.271851
v 3107.815674 -0.000011 -0.000007
v 2894.296143 -0.000026 1233.271729
v 2698.689209 1170.400146 -1170.400269
v 2894.296387 1233.271729 0.000035
v 2698.689209 1170.400024 1170.400146
v 1170.400146 -1170.400146 2698.689453
v 0.000045 -1233.271851 2894.296387
v -1170.400146 -1170.400269 2698.689209
v 1233.271851 0.000067 2894.296143
v 0.000007 -0.000011 3107.815674
v -1233.271729 -0.000026 2894.296631
v 1170.400269 1170.400146 2698.689209
v -0.000035 1233.271729 2894.296387
v -1170.400146 1170.400024 2698.689209
v -1170.400146 -2698.689453 -1170.400024
v -1233.271729 -2894.296387 -0.000007
v -1170.400269 -2698.689209 1170.400146
v 0.000007 -2894.296143 -1233.271851
v -0.000115 -3107.815674 0.000037
v -0.000056 -2894.296631 1233.271729
v 1170.400024 -2698.689209 -1170.400269
v 1233.271729 -2894.296387 0.000030
v 1170.400146 -2698.689453 1170.400146
v 1170.400024 2698.689453 -1170.400024
v 1233.271729 2894.296387 0.000015
v 1170.400269 2698.689209 1170.400146
v -0.000067 2894.296143 -1233.271851
v 0.000011 3107.815674 0.000067
v 0.000026 2894.296631 1233.271729
v -1170.400024 2698.689209 -1170.400269
v -1233.271729 2894.296387 0.000043
v -1170.400024 2698.689209 1170.400146
vt 0.437500 0.062500
vt 0.437500 0.125000
vt 0.500000 0.125000
vt 0.500000 0.062500
vt 0.437500 0.187500
vt 0.500000 0.187500
vt 0.562500 0.125000
vt 0.562500 0.062500
vt 0.562500 0.187500
vt 0.375000 0.000000
vt 0.375000 0.062500
vt 0.437500 0.000000
vt 0.375000 0.125000
vt 0.375000 0.187500
vt 0.375000 0.250000
vt 0.437500 0.250000
vt 0.500000 0.250000
vt 0.562500 0.250000
vt 0.625000 0.250000
vt 0.625000 0.187500
vt 0.625000 0.125000
vt 0.625000 0.062500
vt 0.562500 0.000000
vt 0.625000 0.000000
vt 0.500000 0.000000
vt 0.437500 0.312500
vt 0.437500 0.375000
vt 0.500000 0.375000
vt 0.500000 0.312500
vt 0.437500 0.437500
vt 0.500000 0.437500
vt 0.562500 0.375000
vt 0.562500 0.312500
vt 0.562500 0.437500
vt 0.375000 0.312500
vt 0.375000 0.375000
vt 0.375000 0.437500
vt 0.375000 0.500000
vt 0.437500 0.500000
vt 0.500000 0.500000
vt 0.562500 0.500000
vt 0.625000 0.500000
vt 0.625000 0.437500
vt 0.625000 0.375000
vt 0.625000 0.312500
vt 0.437500 0.562500
vt 0.437500 0.625000
vt 0.500000 0.625000
vt 0.500000 0.562500
vt 0.437500 0.687500
vt 0.500000 0.687500
vt 0.562500 0.625000
vt 0.562500 0.562500
vt 0.562500 0.687500
vt 0.375000 0.562500
vt 0.375000 0.625000
vt 0.375000 0.687500
vt 0.375000 0.750000
vt 0.437500 0.750000
vt 0.500000 0.750000
vt 0.562500 0.750000
vt 0.625000 0.750000
vt 0.625000 0.687500
vt 0.625000 0.625000
vt 0.625000 0.562500
vt 0.437500 0.812500
vt 0.437500 0.875000
vt 0.500000 0.875000
vt 0.500000 0.812500
vt 0.437500 0.937500
vt 0.500000 0.937500
vt 0.562500 0.875000
vt 0.562500 0.812500
vt 0.562500 0.937500
vt 0.375000 0.812500
vt 0.375000 0.875000
vt 0.375000 0.937500
vt 0.375000 1.000000
vt 0.437500 1.000000
vt 0.500000 1.000000
vt 0.562500 1.000000
vt 0.625000 1.000000
vt 0.625000 0.937500
vt 0.625000 0.875000
vt 0.625000 0.812500
vt 0.187500 0.562500
vt 0.187500 0.625000
vt 0.250000 0.625000
vt 0.250000 0.562500
vt 0.187500 0.687500
vt 0.250000 0.687500
vt 0.312500 0.625000
vt 0.312500 0.562500
vt 0.312500 0.687500
vt 0.125000 0.500000
vt 0.125000 0.562500
vt 0.187500 0.500000
vt 0.125000 0.625000
vt 0.125000 0.687500
vt 0.125000 0.750000
vt 0.187500 0.750000
vt 0.250000 0.750000
vt 0.312500 0.750000
vt 0.312500 0.500000
vt 0.250000 0.500000
vt 0.687500 0.562500
vt 0.687500 0.625000
vt 0.750000 0.625000
vt 0.750000 0.562500
vt 0.687500 0.687500
vt 0.750000 0.687500
vt 0.812500 0.625000
vt 0.812500 0.562500
vt 0.812500 0.687500
vt 0.687500 0.500000
vt 0.687500 0.750000
vt 0.750000 0.750000
vt 0.812500 0.750000
vt 0.875000 0.750000
vt 0.875000 0.687500
vt 0.875000 0.625000
vt 0.875000 0.562500
vt 0.812500 0.500000
vt 0.875000 0.500000
vt 0.750000 0.500000
vn 0.9708 0.1697 -0.1697
vn 0.9708 0.1697 0.1697
vn 0.9708 -0.1697 -0.1697
vn 0.9708 -0.1697 0.1697
vn 0.7504 0.4674 -0.4674
vn 0.8367 0.5213 -0.1678
vn 0.8367 0.5213 0.1678
vn 0.7504 0.4674 0.4674
vn 0.8367 0.1678 0.5213
vn 0.8367 -0.1678 0.5213
vn 0.7504 -0.4674 0.4674
vn 0.8367 -0.5213 0.1678
vn 0.8367 -0.5213 -0.1678
vn 0.7504 -0.4674 -0.4674
vn 0.8367 -0.1678 -0.5213
vn 0.8367 0.1678 -0.5213
vn 0.1697 0.1697 0.9708
vn -0.1697 0.1697 0.9708
vn 0.1697 -0.1697 0.9708
vn -0.1697 -0.1697 0.9708
vn 0.4674 0.4674 0.7504
vn 0.1678 0.5213 0.8367
vn -0.1678 0.5213 0.8367
vn -0.4674 0.4674 0.7504
vn -0.5213 0.1678 0.8367
vn -0.5213 -0.1678 0.8367
vn -0.4674 -0.4674 0.7504
vn -0.1678 -0.5213 0.8367
vn 0.1678 -0.5213 0.8367
vn 0.4674 -0.4674 0.7504
vn 0.5213 -0.1678 0.8367
vn 0.5213 0.1678 0.8367
vn -0.9708 0.1697 0.1697
vn -0.9708 0.1697 -0.1697
vn -0.9708 -0.1697 0.1697
vn -0.9708 -0.1697 -0.1697
vn -0.7504 0.4674 0.4674
vn -0.8367 0.5213 0.1678
vn -0.8367 0.5213 -0.1678
vn -0.7504 0.4674 -0.4674
vn -0.8367 0.1678 -0.5213
vn -0.8367 -0.1678 -0.5213
vn -0.7504 -0.4674 -0.4674
vn -0.8367 -0.5213 -0.1678
vn -0.8367 -0.5213 0.1678
vn -0.7504 -0.4674 0.4674
vn -0.8367 -0.1678 0.5213
vn -0.8367 0.1678 0.5213
vn -0.1697 0.1697 -0.9708
vn 0.1697 0.1697 -0.9708
vn -0.1697 -0.1697 -0.9708
vn 0.1697 -0.1697 -0.9708
vn -0.4674 0.4674 -0.7504
vn -0.1678 0.5213 -0.8367
vn 0.1678 0.5213 -0.8367
vn 0.4674 0.4674 -0.7504
vn 0.5213 0.1678 -0.8367
vn 0.5213 -0.1678 -0.8367
vn 0.4674 -0.4674 -0.7504
vn 0.1678 -0.5213 -0.8367
vn -0.1678 -0.5213 -0.8367
vn -0.4674 -0.4674 -0.7504
vn -0.5213 -0.1678 -0.8367
vn -0.5213 0.1678 -0.8367
vn 0.1697 0.9708 0.1697
vn 0.1697 0.9708 -0.1697
vn -0.1697 0.9708 0.1697
vn -0.1697 0.9708 -0.1697
vn 0.4674 0.7504 0.4674
vn 0.5213 0.8367 0.1678
vn 0.5213 0.8367 -0.1678
vn 0.4674 0.7504 -0.4674
vn 0.1678 0.8367 -0.5213
vn -0.1678 0.8367 -0.5213
vn -0.4674 0.7504 -0.4674
vn -0.5213 0.8367 -0.1678
vn -0.5213 0.8367 0.1678
vn -0.4674 0.7504 0.4674
vn -0.1678 0.8367 0.5213
vn 0.1678 0.8367 0.5213
vn -0.1697 -0.9708 0.1697
vn -0.1697 -0.9708 -0.1697
vn 0.1697 -0.9708 0.1697
vn 0.1697 -0.9708 -0.1697
vn -0.4674 -0.7504 0.4674
vn -0.5213 -0.8367 0.1678
vn -0.5213 -0.8367 -0.1678
vn -0.4674 -0.7504 -0.4674
vn -0.1678 -0.8367 -0.5213
vn 0.1678 -0.8367 -0.5213
vn 0.4674 -0.7504 -0.4674
vn 0.5213 -0.8367 -0.1678
vn 0.5213 -0.8367 0.1678
vn 0.4674 -0.7504 0.4674
vn 0.1678 -0.8367 0.5213
vn -0.1678 -0.8367 0.5213
usemtl Material.001
s off
f 45/1/1 46/2/1 49/3/1 48/4/1
f 46/2/2 47/5/2 50/6/2 49/3/2
f 48/4/3 49/3/3 52/7/3 51/8/3
f 49/3/4 50/6/4 53/9/4 52/7/4
f 1/10/5 11/11/5 45/1/5 12/12/5
f 11/11/6 10/13/6 46/2/6 45/1/6
f 10/13/7 9/14/7 47/5/7 46/2/7
f 9/14/8 3/15/8 20/16/8 47/5/8
f 47/5/9 20/16/9 19/17/9 50/6/9
f 50/6/10 19/17/10 18/18/10 53/9/10
f 53/9/11 18/18/11 4/19/11 17/20/11
f 52/7/12 53/9/12 17/20/12 16/21/12
f 51/8/13 52/7/13 16/21/13 15/22/13
f 14/23/14 51/8/14 15/22/14 2/24/14
f 13/25/15 48/4/15 51/8/15 14/23/15
f 12/12/16 45/1/16 48/4/16 13/25/16
f 54/26/17 55/27/17 58/28/17 57/29/17
f 55/27/18 56/30/18 59/31/18 58/28/18
f 57/29/19 58/28/19 61/32/19 60/33/19
f 58/28/20 59/31/20 62/34/20 61/32/20
f 3/15/21 23/35/21 54/26/21 20/16/21
f 23/35/22 22/36/22 55/27/22 54/26/22
f 22/36/23 21/37/23 56/30/23 55/27/23
f 21/37/24 7/38/24 29/39/24 56/30/24
f 56/30/25 29/39/25 28/40/25 59/31/25
f 59/31/26 28/40/26 27/41/26 62/34/26
f 62/34/27 27/41/27 8/42/27 26/43/27
f 61/32/28 62/34/28 26/43/28 25/44/28
f 60/33/29 61/32/29 25/44/29 24/45/29
f 18/18/30 60/33/30 24/45/30 4/19/30
f 19/17/31 57/29/31 60/33/31 18/18/31
f 20/16/32 54/26/32 57/29/32 19/17/32
f 63/46/33 64/47/33 67/48/33 66/49/33
f 64/47/34 65/50/34 68/51/34 67/48/34
f 66/49/35 67/48/35 70/52/35 69/53/35
f 67/48/36 68/51/36 71/54/36 70/52/36
f 7/38/37 32/55/37 63/46/37 29/39/37
f 32/55/38 31/56/38 64/47/38 63/46/38
f 31/56/39 30/57/39 65/50/39 64/47/39
f 30/57/40 5/58/40 38/59/40 65/50/40
f 65/50/41 38/59/41 37/60/41 68/51/41
f 68/51/42 37/60/42 36/61/42 71/54/42
f 71/54/43 36/61/43 6/62/43 35/63/43
f 70/52/44 71/54/44 35/63/44 34/64/44
f 69/53/45 70/52/45 34/64/45 33/65/45
f 27/41/46 69/53/46 33/65/46 8/42/46
f 28/40/47 66/49/47 69/53/47 27/41/47
f 29/39/48 63/46/48 66/49/48 28/40/48
f 72/66/49 73/67/49 76/68/49 75/69/49
f 73/67/50 74/70/50 77/71/50 76/68/50
f 75/69/51 76/68/51 79/72/51 78/73/51
f 76/68/52 77/71/52 80/74/52 79/72/52
f 5/58/53 41/75/53 72/66/53 38/59/53
f 41/75/54 40/76/54 73/67/54 72/66/54
f 40/76/55 39/77/55 74/70/55 73/67/55
f 39/77/56 1/78/56 12/79/56 74/70/56
f 74/70/57 12/79/57 13/80/57 77/71/57
f 77/71/58 13/80/58 14/81/58 80/74/58
f 80/74/59 14/81/59 2/82/59 44/83/59
f 79/72/60 80/74/60 44/83/60 43/84/60
f 78/73/61 79/72/61 43/84/61 42/85/61
f 36/61/62 78/73/62 42/85/62 6/62/62
f 37/60/63 75/69/63 78/73/63 36/61/63
f 38/59/64 72/66/64 75/69/64 37/60/64
f 81/86/65 82/87/65 85/88/65 84/89/65
f 82/87/66 83/90/66 86/91/66 85/88/66
f 84/89/67 85/88/67 88/92/67 87/93/67
f 85/88/68 86/91/68 89/94/68 88/92/68
f 3/95/69 9/96/69 81/86/69 23/97/69
f 9/96/70 10/98/70 82/87/70 81/86/70
f 10/98/71 11/99/71 83/90/71 82/87/71
f 11/99/72 1/100/72 39/101/72 83/90/72
f 83/90/73 39/101/73 40/102/73 86/91/73
f 86/91/74 40/102/74 41/103/74 89/94/74
f 89/94/75 41/103/75 5/58/75 30/57/75
f 88/92/76 89/94/76 30/57/76 31/56/76
f 87/93/77 88/92/77 31/56/77 32/55/77
f 21/104/78 87/93/78 32/55/78 7/38/78
f 22/105/79 84/89/79 87/93/79 21/104/79
f 23/97/80 81/86/80 84/89/80 22/105/80
f 90/106/81 91/107/81 94/108/81 93/109/81
f 91/107/82 92/110/82 95/111/82 94/108/82
f 93/109/83 94/108/83 97/112/83 96/113/83
f 94/108/84 95/111/84 98/114/84 97/112/84
f 8/42/85 33/65/85 90/106/85 26/115/85
f 33/65/86 34/64/86 91/107/86 90/106/86
f 34/64/87 35/63/87 92/110/87 91/107/87
f 35/63/88 6/62/88 42/116/88 92/110/88
f 92/110/89 42/116/89 43/117/89 95/111/89
f 95/111/90 43/117/90 44/118/90 98/114/90
f 98/114/91 44/118/91 2/119/91 15/120/91
f 97/112/92 98/114/92 15/120/92 16/121/92
f 96/113/93 97/112/93 16/121/93 17/122/93
f 24/123/94 96/113/94 17/122/94 4/124/94
f 25/125/95 93/109/95 96/113/95 24/123/95
f 26/115/96 90/106/96 93/109/96 25/125/96
